<?xml version="1.0" encoding="UTF-8" standalone="no"?>
<!DOCTYPE svg PUBLIC "-//W3C//DTD SVG 1.1//EN"
 "http://www.w3.org/Graphics/SVG/1.1/DTD/svg11.dtd">
<!-- Generated by graphviz version 5.0.0 (20220707.1540)
 -->
<!-- Title: dependencies Pages: 1 -->
<svg width="1075pt" height="247pt"
 viewBox="0.00 0.00 1075.00 246.80" xmlns="http://www.w3.org/2000/svg" xmlns:xlink="http://www.w3.org/1999/xlink">
<g id="graph0" class="graph" transform="scale(1 1) rotate(0) translate(4 242.8)">
<title>dependencies</title>
<polygon fill="white" stroke="transparent" points="-4,4 -4,-242.8 1071,-242.8 1071,4 -4,4"/>
<text text-anchor="middle" x="533.5" y="-8.2" font-family="sans-serif" font-size="14.00">dependencies</text>
<g id="clust1" class="cluster">
<title>cluster_SharedModule</title>
<polygon fill="none" stroke="black" stroke-dasharray="1,5" points="8,-32.8 8,-230.8 1059,-230.8 1059,-32.8 8,-32.8"/>
</g>
<g id="clust2" class="cluster">
<title>cluster_SharedModule_declarations</title>
<polygon fill="none" stroke="black" points="330,-40.8 330,-92.8 1051,-92.8 1051,-40.8 330,-40.8"/>
</g>
<g id="clust8" class="cluster">
<title>cluster_SharedModule_imports</title>
<polygon fill="none" stroke="black" points="16,-40.8 16,-92.8 322,-92.8 322,-40.8 16,-40.8"/>
</g>
<g id="clust9" class="cluster">
<title>cluster_SharedModule_exports</title>
<polygon fill="none" stroke="black" points="158,-170.8 158,-222.8 895,-222.8 895,-170.8 158,-170.8"/>
</g>
<!-- FooterComponent -->
<g id="node1" class="node">
<title>FooterComponent</title>
<polygon fill="#ffffb3" stroke="black" points="1042.88,-84.8 925.12,-84.8 925.12,-48.8 1042.88,-48.8 1042.88,-84.8"/>
<text text-anchor="middle" x="984" y="-62.6" font-family="Times,serif" font-size="14.00">FooterComponent</text>
</g>
<!-- SharedModule -->
<g id="node6" class="node">
<title>SharedModule</title>
<polygon fill="#8dd3c7" stroke="black" points="661.43,-149.8 658.43,-153.8 637.43,-153.8 634.43,-149.8 562.57,-149.8 562.57,-113.8 661.43,-113.8 661.43,-149.8"/>
<text text-anchor="middle" x="612" y="-127.6" font-family="Times,serif" font-size="14.00">SharedModule</text>
</g>
<!-- FooterComponent&#45;&gt;SharedModule -->
<g id="edge1" class="edge">
<title>FooterComponent&#45;&gt;SharedModule</title>
<path fill="none" stroke="black" d="M984,-84.93C984,-105.37 984,-135.8 984,-135.8 984,-135.8 671.4,-135.8 671.4,-135.8"/>
<polygon fill="black" stroke="black" points="671.4,-132.3 661.4,-135.8 671.4,-139.3 671.4,-132.3"/>
</g>
<!-- MovieComponent -->
<g id="node2" class="node">
<title>MovieComponent</title>
<polygon fill="#ffffb3" stroke="black" points="906.88,-84.8 789.12,-84.8 789.12,-48.8 906.88,-48.8 906.88,-84.8"/>
<text text-anchor="middle" x="848" y="-62.6" font-family="Times,serif" font-size="14.00">MovieComponent</text>
</g>
<!-- MovieComponent&#45;&gt;SharedModule -->
<g id="edge2" class="edge">
<title>MovieComponent&#45;&gt;SharedModule</title>
<path fill="none" stroke="black" d="M821.6,-84.81C821.6,-100.85 821.6,-121.8 821.6,-121.8 821.6,-121.8 671.41,-121.8 671.41,-121.8"/>
<polygon fill="black" stroke="black" points="671.41,-118.3 661.41,-121.8 671.41,-125.3 671.41,-118.3"/>
</g>
<!-- MovieComponent&#45;&gt;SharedModule -->
<g id="edge3" class="edge">
<title>MovieComponent&#45;&gt;SharedModule</title>
<path fill="none" stroke="black" d="M854.15,-85.07C854.15,-103.36 854.15,-128.8 854.15,-128.8 854.15,-128.8 671.29,-128.8 671.29,-128.8"/>
<polygon fill="black" stroke="black" points="671.29,-125.3 661.29,-128.8 671.29,-132.3 671.29,-125.3"/>
</g>
<!-- MovieListComponent -->
<g id="node3" class="node">
<title>MovieListComponent</title>
<polygon fill="#ffffb3" stroke="black" points="770.66,-84.8 631.34,-84.8 631.34,-48.8 770.66,-48.8 770.66,-84.8"/>
<text text-anchor="middle" x="701" y="-62.6" font-family="Times,serif" font-size="14.00">MovieListComponent</text>
</g>
<!-- MovieListComponent&#45;&gt;SharedModule -->
<g id="edge4" class="edge">
<title>MovieListComponent&#45;&gt;SharedModule</title>
<path fill="none" stroke="black" d="M646.19,-84.91C646.19,-84.91 646.19,-103.79 646.19,-103.79"/>
<polygon fill="black" stroke="black" points="642.69,-103.79 646.19,-113.79 649.69,-103.79 642.69,-103.79"/>
</g>
<!-- NavigationbarComponent -->
<g id="node4" class="node">
<title>NavigationbarComponent</title>
<polygon fill="#ffffb3" stroke="black" points="612.91,-84.8 451.09,-84.8 451.09,-48.8 612.91,-48.8 612.91,-84.8"/>
<text text-anchor="middle" x="532" y="-62.6" font-family="Times,serif" font-size="14.00">NavigationbarComponent</text>
</g>
<!-- NavigationbarComponent&#45;&gt;SharedModule -->
<g id="edge5" class="edge">
<title>NavigationbarComponent&#45;&gt;SharedModule</title>
<path fill="none" stroke="black" d="M587.75,-84.91C587.75,-84.91 587.75,-103.79 587.75,-103.79"/>
<polygon fill="black" stroke="black" points="584.25,-103.79 587.75,-113.79 591.25,-103.79 584.25,-103.79"/>
</g>
<!-- SnubTextPipe -->
<g id="node5" class="node">
<title>SnubTextPipe</title>
<polygon fill="#ffffb3" stroke="black" points="433.83,-84.8 338.17,-84.8 338.17,-48.8 433.83,-48.8 433.83,-84.8"/>
<text text-anchor="middle" x="386" y="-62.6" font-family="Times,serif" font-size="14.00">SnubTextPipe</text>
</g>
<!-- SnubTextPipe&#45;&gt;SharedModule -->
<g id="edge6" class="edge">
<title>SnubTextPipe&#45;&gt;SharedModule</title>
<path fill="none" stroke="black" d="M386,-85.04C386,-100.37 386,-119.8 386,-119.8 386,-119.8 552.68,-119.8 552.68,-119.8"/>
<polygon fill="black" stroke="black" points="552.68,-123.3 562.68,-119.8 552.68,-116.3 552.68,-123.3"/>
</g>
<!-- FooterComponent  -->
<g id="node9" class="node">
<title>FooterComponent </title>
<polygon fill="#fb8072" stroke="black" points="886.88,-214.8 765.12,-214.8 765.12,-178.8 886.88,-178.8 886.88,-214.8"/>
<text text-anchor="middle" x="826" y="-192.6" font-family="Times,serif" font-size="14.00">FooterComponent </text>
</g>
<!-- SharedModule&#45;&gt;FooterComponent  -->
<g id="edge9" class="edge">
<title>SharedModule&#45;&gt;FooterComponent </title>
<path fill="none" stroke="black" stroke-dasharray="5,2" d="M661.48,-142.8C711.02,-142.8 779.94,-142.8 779.94,-142.8 779.94,-142.8 779.94,-168.52 779.94,-168.52"/>
<polygon fill="black" stroke="black" points="776.44,-168.52 779.94,-178.52 783.44,-168.52 776.44,-168.52"/>
</g>
<!-- MovieComponent  -->
<g id="node10" class="node">
<title>MovieComponent </title>
<polygon fill="#fb8072" stroke="black" points="747.88,-214.8 626.12,-214.8 626.12,-178.8 747.88,-178.8 747.88,-214.8"/>
<text text-anchor="middle" x="687" y="-192.6" font-family="Times,serif" font-size="14.00">MovieComponent </text>
</g>
<!-- SharedModule&#45;&gt;MovieComponent  -->
<g id="edge10" class="edge">
<title>SharedModule&#45;&gt;MovieComponent </title>
<path fill="none" stroke="black" stroke-dasharray="5,2" d="M649.58,-149.91C649.58,-149.91 649.58,-168.79 649.58,-168.79"/>
<polygon fill="black" stroke="black" points="646.08,-168.79 649.58,-178.79 653.08,-168.79 646.08,-168.79"/>
</g>
<!-- SharedModule&#45;&gt;MovieComponent  -->
<g id="edge11" class="edge">
<title>SharedModule&#45;&gt;MovieComponent </title>
<path fill="none" stroke="black" stroke-dasharray="5,2" d="M637.94,-149.91C637.94,-149.91 637.94,-168.79 637.94,-168.79"/>
<polygon fill="black" stroke="black" points="634.44,-168.79 637.94,-178.79 641.44,-168.79 634.44,-168.79"/>
</g>
<!-- MovieListComponent  -->
<g id="node11" class="node">
<title>MovieListComponent </title>
<polygon fill="#fb8072" stroke="black" points="608.66,-214.8 465.34,-214.8 465.34,-178.8 608.66,-178.8 608.66,-214.8"/>
<text text-anchor="middle" x="537" y="-192.6" font-family="Times,serif" font-size="14.00">MovieListComponent </text>
</g>
<!-- SharedModule&#45;&gt;MovieListComponent  -->
<g id="edge12" class="edge">
<title>SharedModule&#45;&gt;MovieListComponent </title>
<path fill="none" stroke="black" stroke-dasharray="5,2" d="M585.68,-149.91C585.68,-149.91 585.68,-168.79 585.68,-168.79"/>
<polygon fill="black" stroke="black" points="582.18,-168.79 585.68,-178.79 589.18,-168.79 582.18,-168.79"/>
</g>
<!-- NavigationbarComponent  -->
<g id="node12" class="node">
<title>NavigationbarComponent </title>
<polygon fill="#fb8072" stroke="black" points="447.41,-214.8 282.59,-214.8 282.59,-178.8 447.41,-178.8 447.41,-214.8"/>
<text text-anchor="middle" x="365" y="-192.6" font-family="Times,serif" font-size="14.00">NavigationbarComponent </text>
</g>
<!-- SharedModule&#45;&gt;NavigationbarComponent  -->
<g id="edge13" class="edge">
<title>SharedModule&#45;&gt;NavigationbarComponent </title>
<path fill="none" stroke="black" stroke-dasharray="5,2" d="M562.41,-143.8C511.78,-143.8 440.56,-143.8 440.56,-143.8 440.56,-143.8 440.56,-168.56 440.56,-168.56"/>
<polygon fill="black" stroke="black" points="437.06,-168.56 440.56,-178.56 444.06,-168.56 437.06,-168.56"/>
</g>
<!-- SnubTextPipe  -->
<g id="node13" class="node">
<title>SnubTextPipe </title>
<polygon fill="#fb8072" stroke="black" points="264.33,-214.8 165.67,-214.8 165.67,-178.8 264.33,-178.8 264.33,-214.8"/>
<text text-anchor="middle" x="215" y="-192.6" font-family="Times,serif" font-size="14.00">SnubTextPipe </text>
</g>
<!-- SharedModule&#45;&gt;SnubTextPipe  -->
<g id="edge14" class="edge">
<title>SharedModule&#45;&gt;SnubTextPipe </title>
<path fill="none" stroke="black" stroke-dasharray="5,2" d="M562.59,-137.8C458.27,-137.8 225.01,-137.8 225.01,-137.8 225.01,-137.8 225.01,-168.78 225.01,-168.78"/>
<polygon fill="black" stroke="black" points="221.51,-168.78 225.01,-178.78 228.51,-168.78 221.51,-168.78"/>
</g>
<!-- AppRoutingModule -->
<g id="node7" class="node">
<title>AppRoutingModule</title>
<polygon fill="#8dd3c7" stroke="black" points="314.28,-84.8 311.28,-88.8 290.28,-88.8 287.28,-84.8 185.72,-84.8 185.72,-48.8 314.28,-48.8 314.28,-84.8"/>
<text text-anchor="middle" x="250" y="-62.6" font-family="Times,serif" font-size="14.00">AppRoutingModule</text>
</g>
<!-- AppRoutingModule&#45;&gt;SharedModule -->
<g id="edge7" class="edge">
<title>AppRoutingModule&#45;&gt;SharedModule</title>
<path fill="none" stroke="black" d="M298.47,-84.82C298.47,-102.17 298.47,-125.8 298.47,-125.8 298.47,-125.8 552.67,-125.8 552.67,-125.8"/>
<polygon fill="black" stroke="black" points="552.67,-129.3 562.67,-125.8 552.67,-122.3 552.67,-129.3"/>
</g>
<!-- SharedRoutingModule -->
<g id="node8" class="node">
<title>SharedRoutingModule</title>
<polygon fill="#8dd3c7" stroke="black" points="167.55,-84.8 164.55,-88.8 143.55,-88.8 140.55,-84.8 24.45,-84.8 24.45,-48.8 167.55,-48.8 167.55,-84.8"/>
<text text-anchor="middle" x="96" y="-62.6" font-family="Times,serif" font-size="14.00">SharedRoutingModule</text>
</g>
<!-- SharedRoutingModule&#45;&gt;SharedModule -->
<g id="edge8" class="edge">
<title>SharedRoutingModule&#45;&gt;SharedModule</title>
<path fill="none" stroke="black" d="M94.91,-84.91C94.91,-104.14 94.91,-131.8 94.91,-131.8 94.91,-131.8 552.42,-131.8 552.42,-131.8"/>
<polygon fill="black" stroke="black" points="552.42,-135.3 562.42,-131.8 552.42,-128.3 552.42,-135.3"/>
</g>
</g>
</svg>
