<?xml version="1.0" encoding="UTF-8" standalone="no"?>
<!DOCTYPE svg PUBLIC "-//W3C//DTD SVG 1.1//EN"
 "http://www.w3.org/Graphics/SVG/1.1/DTD/svg11.dtd">
<!-- Generated by graphviz version 5.0.0 (20220707.1540)
 -->
<!-- Title: dependencies Pages: 1 -->
<svg width="190pt" height="174pt"
 viewBox="0.00 0.00 190.00 173.80" xmlns="http://www.w3.org/2000/svg" xmlns:xlink="http://www.w3.org/1999/xlink">
<g id="graph0" class="graph" transform="scale(1 1) rotate(0) translate(4 169.8)">
<title>dependencies</title>
<polygon fill="white" stroke="transparent" points="-4,4 -4,-169.8 186,-169.8 186,4 -4,4"/>
<text text-anchor="middle" x="91" y="-8.2" font-family="sans-serif" font-size="14.00">dependencies</text>
<g id="clust1" class="cluster">
<title>cluster_WatchedListModule</title>
<polygon fill="none" stroke="black" stroke-dasharray="1,5" points="8,-32.8 8,-157.8 174,-157.8 174,-32.8 8,-32.8"/>
</g>
<g id="clust2" class="cluster">
<title>cluster_WatchedListModule_declarations</title>
<polygon fill="none" stroke="black" points="16,-40.8 16,-92.8 166,-92.8 166,-40.8 16,-40.8"/>
</g>
<!-- WatchlistComponent -->
<g id="node1" class="node">
<title>WatchlistComponent</title>
<polygon fill="#ffffb3" stroke="black" points="158.48,-84.8 155.48,-88.8 134.48,-88.8 131.48,-84.8 23.52,-84.8 23.52,-48.8 158.48,-48.8 158.48,-84.8"/>
<text text-anchor="middle" x="91" y="-62.6" font-family="Times,serif" font-size="14.00">WatchlistComponent</text>
</g>
<!-- WatchedListModule -->
<g id="node2" class="node">
<title>WatchedListModule</title>
<polygon fill="#8dd3c7" stroke="black" points="156.58,-149.8 153.58,-153.8 132.58,-153.8 129.58,-149.8 25.42,-149.8 25.42,-113.8 156.58,-113.8 156.58,-149.8"/>
<text text-anchor="middle" x="91" y="-127.6" font-family="Times,serif" font-size="14.00">WatchedListModule</text>
</g>
<!-- WatchlistComponent&#45;&gt;WatchedListModule -->
<g id="edge1" class="edge">
<title>WatchlistComponent&#45;&gt;WatchedListModule</title>
<path fill="none" stroke="black" d="M69.15,-84.91C69.15,-84.91 69.15,-103.79 69.15,-103.79"/>
<polygon fill="black" stroke="black" points="65.65,-103.79 69.15,-113.79 72.65,-103.79 65.65,-103.79"/>
</g>
<!-- WatchlistComponent&#45;&gt;WatchedListModule -->
<g id="edge2" class="edge">
<title>WatchlistComponent&#45;&gt;WatchedListModule</title>
<path fill="none" stroke="black" d="M112.85,-84.91C112.85,-84.91 112.85,-103.79 112.85,-103.79"/>
<polygon fill="black" stroke="black" points="109.35,-103.79 112.85,-113.79 116.35,-103.79 109.35,-103.79"/>
</g>
</g>
</svg>
