<?xml version="1.0" encoding="UTF-8" standalone="no"?>
<!DOCTYPE svg PUBLIC "-//W3C//DTD SVG 1.1//EN"
 "http://www.w3.org/Graphics/SVG/1.1/DTD/svg11.dtd">
<!-- Generated by graphviz version 5.0.0 (20220707.1540)
 -->
<!-- Title: dependencies Pages: 1 -->
<svg width="2457pt" height="318pt"
 viewBox="0.00 0.00 2457.00 317.80" xmlns="http://www.w3.org/2000/svg" xmlns:xlink="http://www.w3.org/1999/xlink">
<g id="graph0" class="graph" transform="scale(1 1) rotate(0) translate(4 313.8)">
<title>dependencies</title>
<polygon fill="white" stroke="transparent" points="-4,4 -4,-313.8 2453,-313.8 2453,4 -4,4"/>
<text text-anchor="middle" x="1224.5" y="-8.2" font-family="sans-serif" font-size="14.00">dependencies</text>
<g id="clust1" class="cluster">
<title>cluster_AppModule</title>
<polygon fill="none" stroke="black" stroke-dasharray="1,5" points="8,-32.8 8,-301.8 961,-301.8 961,-32.8 8,-32.8"/>
</g>
<g id="clust2" class="cluster">
<title>cluster_AppModule_declarations</title>
<polygon fill="none" stroke="black" points="16,-40.8 16,-92.8 801,-92.8 801,-40.8 16,-40.8"/>
</g>
<g id="clust8" class="cluster">
<title>cluster_AppModule_imports</title>
<polygon fill="none" stroke="black" points="809,-40.8 809,-157.8 953,-157.8 953,-40.8 809,-40.8"/>
</g>
<g id="clust10" class="cluster">
<title>cluster_AppModule_bootstrap</title>
<polygon fill="none" stroke="black" points="499,-241.8 499,-293.8 623,-293.8 623,-241.8 499,-241.8"/>
</g>
<g id="clust18" class="cluster">
<title>cluster_SharedModule</title>
<polygon fill="none" stroke="black" stroke-dasharray="1,5" points="969,-165.8 969,-233.8 2441,-233.8 2441,-165.8 969,-165.8"/>
</g>
<g id="clust19" class="cluster">
<title>cluster_SharedModule_declarations</title>
<polygon fill="none" stroke="black" points="1891,-173.8 1891,-225.8 2433,-225.8 2433,-173.8 1891,-173.8"/>
</g>
<g id="clust25" class="cluster">
<title>cluster_SharedModule_imports</title>
<polygon fill="none" stroke="black" points="1723,-173.8 1723,-225.8 1883,-225.8 1883,-173.8 1723,-173.8"/>
</g>
<g id="clust26" class="cluster">
<title>cluster_SharedModule_exports</title>
<polygon fill="none" stroke="black" points="977,-173.8 977,-225.8 1715,-225.8 1715,-173.8 977,-173.8"/>
</g>
<g id="clust35" class="cluster">
<title>cluster_WatchedListModule</title>
<polygon fill="none" stroke="black" stroke-dasharray="1,5" points="1622,-32.8 1622,-157.8 1788,-157.8 1788,-32.8 1622,-32.8"/>
</g>
<g id="clust36" class="cluster">
<title>cluster_WatchedListModule_declarations</title>
<polygon fill="none" stroke="black" points="1630,-40.8 1630,-92.8 1780,-92.8 1780,-40.8 1630,-40.8"/>
</g>
<!-- AppComponent -->
<g id="node1" class="node">
<title>AppComponent</title>
<polygon fill="#ffffb3" stroke="black" points="613.94,-84.8 508.06,-84.8 508.06,-48.8 613.94,-48.8 613.94,-84.8"/>
<text text-anchor="middle" x="561" y="-62.6" font-family="Times,serif" font-size="14.00">AppComponent</text>
</g>
<!-- AppModule -->
<g id="node6" class="node">
<title>AppModule</title>
<polygon fill="#8dd3c7" stroke="black" points="602.66,-217.8 599.66,-221.8 578.66,-221.8 575.66,-217.8 519.34,-217.8 519.34,-181.8 602.66,-181.8 602.66,-217.8"/>
<text text-anchor="middle" x="561" y="-195.6" font-family="Times,serif" font-size="14.00">AppModule</text>
</g>
<!-- AppComponent&#45;&gt;AppModule -->
<g id="edge1" class="edge">
<title>AppComponent&#45;&gt;AppModule</title>
<path fill="none" stroke="black" d="M547.06,-85.01C547.06,-85.01 547.06,-171.38 547.06,-171.38"/>
<polygon fill="black" stroke="black" points="543.56,-171.38 547.06,-181.38 550.56,-171.38 543.56,-171.38"/>
</g>
<!-- HomepageComponent -->
<g id="node2" class="node">
<title>HomepageComponent</title>
<polygon fill="#ffffb3" stroke="black" points="165.97,-84.8 24.03,-84.8 24.03,-48.8 165.97,-48.8 165.97,-84.8"/>
<text text-anchor="middle" x="95" y="-62.6" font-family="Times,serif" font-size="14.00">HomepageComponent</text>
</g>
<!-- HomepageComponent&#45;&gt;AppModule -->
<g id="edge2" class="edge">
<title>HomepageComponent&#45;&gt;AppModule</title>
<path fill="none" stroke="black" d="M95,-85.07C95,-123.43 95,-208.8 95,-208.8 95,-208.8 509.24,-208.8 509.24,-208.8"/>
<polygon fill="black" stroke="black" points="509.24,-212.3 519.24,-208.8 509.24,-205.3 509.24,-212.3"/>
</g>
<!-- MovieDetailComponent -->
<g id="node3" class="node">
<title>MovieDetailComponent</title>
<polygon fill="#ffffb3" stroke="black" points="336.09,-84.8 183.91,-84.8 183.91,-48.8 336.09,-48.8 336.09,-84.8"/>
<text text-anchor="middle" x="260" y="-62.6" font-family="Times,serif" font-size="14.00">MovieDetailComponent</text>
</g>
<!-- MovieDetailComponent&#45;&gt;AppModule -->
<g id="edge3" class="edge">
<title>MovieDetailComponent&#45;&gt;AppModule</title>
<path fill="none" stroke="black" d="M260,-85.01C260,-121.44 260,-199.8 260,-199.8 260,-199.8 509.15,-199.8 509.15,-199.8"/>
<polygon fill="black" stroke="black" points="509.15,-203.3 519.15,-199.8 509.15,-196.3 509.15,-203.3"/>
</g>
<!-- NavigationbarComponent -->
<g id="node4" class="node">
<title>NavigationbarComponent</title>
<polygon fill="#ffffb3" stroke="black" points="792.91,-84.8 631.09,-84.8 631.09,-48.8 792.91,-48.8 792.91,-84.8"/>
<text text-anchor="middle" x="712" y="-62.6" font-family="Times,serif" font-size="14.00">NavigationbarComponent</text>
</g>
<!-- NavigationbarComponent&#45;&gt;AppModule -->
<g id="edge4" class="edge">
<title>NavigationbarComponent&#45;&gt;AppModule</title>
<path fill="none" stroke="black" d="M685.1,-84.95C685.1,-119.16 685.1,-189.8 685.1,-189.8 685.1,-189.8 612.67,-189.8 612.67,-189.8"/>
<polygon fill="black" stroke="black" points="612.67,-186.3 602.67,-189.8 612.67,-193.3 612.67,-186.3"/>
</g>
<!-- SharedModule -->
<g id="node8" class="node">
<title>SharedModule</title>
<polygon fill="#8dd3c7" stroke="black" points="945.43,-149.8 942.43,-153.8 921.43,-153.8 918.43,-149.8 846.57,-149.8 846.57,-113.8 945.43,-113.8 945.43,-149.8"/>
<text text-anchor="middle" x="896" y="-127.6" font-family="Times,serif" font-size="14.00">SharedModule</text>
</g>
<!-- NavigationbarComponent&#45;&gt;SharedModule -->
<g id="edge13" class="edge">
<title>NavigationbarComponent&#45;&gt;SharedModule</title>
<path fill="none" stroke="black" d="M738.9,-84.82C738.9,-102.17 738.9,-125.8 738.9,-125.8 738.9,-125.8 836.72,-125.8 836.72,-125.8"/>
<polygon fill="black" stroke="black" points="836.72,-129.3 846.72,-125.8 836.72,-122.3 836.72,-129.3"/>
</g>
<!-- SearchlistComponent -->
<g id="node5" class="node">
<title>SearchlistComponent</title>
<polygon fill="#ffffb3" stroke="black" points="490.04,-84.8 353.96,-84.8 353.96,-48.8 490.04,-48.8 490.04,-84.8"/>
<text text-anchor="middle" x="422" y="-62.6" font-family="Times,serif" font-size="14.00">SearchlistComponent</text>
</g>
<!-- SearchlistComponent&#45;&gt;AppModule -->
<g id="edge5" class="edge">
<title>SearchlistComponent&#45;&gt;AppModule</title>
<path fill="none" stroke="black" d="M422,-84.83C422,-119.22 422,-190.8 422,-190.8 422,-190.8 509.3,-190.8 509.3,-190.8"/>
<polygon fill="black" stroke="black" points="509.3,-194.3 519.3,-190.8 509.3,-187.3 509.3,-194.3"/>
</g>
<!-- AppComponent  -->
<g id="node9" class="node">
<title>AppComponent </title>
<polygon fill="#80b1d3" stroke="black" points="615.44,-285.8 506.56,-285.8 506.56,-249.8 615.44,-249.8 615.44,-285.8"/>
<text text-anchor="middle" x="561" y="-263.6" font-family="Times,serif" font-size="14.00">AppComponent </text>
</g>
<!-- AppModule&#45;&gt;AppComponent  -->
<g id="edge8" class="edge">
<title>AppModule&#45;&gt;AppComponent </title>
<path fill="none" stroke="black" stroke-dasharray="1,5" d="M561,-218.02C561,-218.02 561,-239.53 561,-239.53"/>
<polygon fill="black" stroke="black" points="557.5,-239.53 561,-249.53 564.5,-239.53 557.5,-239.53"/>
</g>
<!-- AppRoutingModule -->
<g id="node7" class="node">
<title>AppRoutingModule</title>
<polygon fill="#8dd3c7" stroke="black" points="945.28,-84.8 942.28,-88.8 921.28,-88.8 918.28,-84.8 816.72,-84.8 816.72,-48.8 945.28,-48.8 945.28,-84.8"/>
<text text-anchor="middle" x="881" y="-62.6" font-family="Times,serif" font-size="14.00">AppRoutingModule</text>
</g>
<!-- AppRoutingModule&#45;&gt;AppModule -->
<g id="edge6" class="edge">
<title>AppRoutingModule&#45;&gt;AppModule</title>
<path fill="none" stroke="black" d="M831.7,-84.88C831.7,-120.6 831.7,-196.8 831.7,-196.8 831.7,-196.8 612.7,-196.8 612.7,-196.8"/>
<polygon fill="black" stroke="black" points="612.7,-193.3 602.7,-196.8 612.7,-200.3 612.7,-193.3"/>
</g>
<!-- AppRoutingModule&#45;&gt;SharedModule -->
<g id="edge15" class="edge">
<title>AppRoutingModule&#45;&gt;SharedModule</title>
<path fill="none" stroke="black" d="M896,-84.91C896,-84.91 896,-103.79 896,-103.79"/>
<polygon fill="black" stroke="black" points="892.5,-103.79 896,-113.79 899.5,-103.79 892.5,-103.79"/>
</g>
<!-- SharedModule&#45;&gt;AppModule -->
<g id="edge7" class="edge">
<title>SharedModule&#45;&gt;AppModule</title>
<path fill="none" stroke="black" d="M846.54,-137.8C756.48,-137.8 574.94,-137.8 574.94,-137.8 574.94,-137.8 574.94,-171.53 574.94,-171.53"/>
<polygon fill="black" stroke="black" points="571.44,-171.53 574.94,-181.53 578.44,-171.53 571.44,-171.53"/>
</g>
<!-- FooterComponent  -->
<g id="node15" class="node">
<title>FooterComponent </title>
<polygon fill="#fb8072" stroke="black" points="1245.88,-217.8 1124.12,-217.8 1124.12,-181.8 1245.88,-181.8 1245.88,-217.8"/>
<text text-anchor="middle" x="1185" y="-195.6" font-family="Times,serif" font-size="14.00">FooterComponent </text>
</g>
<!-- SharedModule&#45;&gt;FooterComponent  -->
<g id="edge17" class="edge">
<title>SharedModule&#45;&gt;FooterComponent </title>
<path fill="none" stroke="black" stroke-dasharray="5,2" d="M945.35,-142.8C1027.89,-142.8 1185,-142.8 1185,-142.8 1185,-142.8 1185,-171.76 1185,-171.76"/>
<polygon fill="black" stroke="black" points="1181.5,-171.76 1185,-181.76 1188.5,-171.76 1181.5,-171.76"/>
</g>
<!-- MovieComponent  -->
<g id="node16" class="node">
<title>MovieComponent </title>
<polygon fill="#fb8072" stroke="black" points="1106.88,-217.8 985.12,-217.8 985.12,-181.8 1106.88,-181.8 1106.88,-217.8"/>
<text text-anchor="middle" x="1046" y="-195.6" font-family="Times,serif" font-size="14.00">MovieComponent </text>
</g>
<!-- SharedModule&#45;&gt;MovieComponent  -->
<g id="edge18" class="edge">
<title>SharedModule&#45;&gt;MovieComponent </title>
<path fill="none" stroke="black" stroke-dasharray="5,2" d="M923.34,-150.12C923.34,-173.46 923.34,-210.8 923.34,-210.8 923.34,-210.8 975.03,-210.8 975.03,-210.8"/>
<polygon fill="black" stroke="black" points="975.03,-214.3 985.03,-210.8 975.03,-207.3 975.03,-214.3"/>
</g>
<!-- SharedModule&#45;&gt;MovieComponent  -->
<g id="edge19" class="edge">
<title>SharedModule&#45;&gt;MovieComponent </title>
<path fill="none" stroke="black" stroke-dasharray="5,2" d="M934.28,-149.97C934.28,-171.3 934.28,-203.8 934.28,-203.8 934.28,-203.8 975.23,-203.8 975.23,-203.8"/>
<polygon fill="black" stroke="black" points="975.23,-207.3 985.23,-203.8 975.23,-200.3 975.23,-207.3"/>
</g>
<!-- MovieListComponent  -->
<g id="node17" class="node">
<title>MovieListComponent </title>
<polygon fill="#fb8072" stroke="black" points="1706.66,-217.8 1563.34,-217.8 1563.34,-181.8 1706.66,-181.8 1706.66,-217.8"/>
<text text-anchor="middle" x="1635" y="-195.6" font-family="Times,serif" font-size="14.00">MovieListComponent </text>
</g>
<!-- SharedModule&#45;&gt;MovieListComponent  -->
<g id="edge20" class="edge">
<title>SharedModule&#45;&gt;MovieListComponent </title>
<path fill="none" stroke="black" stroke-dasharray="5,2" d="M945.26,-121.8C1105.31,-121.8 1600.46,-121.8 1600.46,-121.8 1600.46,-121.8 1600.46,-171.71 1600.46,-171.71"/>
<polygon fill="black" stroke="black" points="1596.96,-171.71 1600.46,-181.71 1603.96,-171.71 1596.96,-171.71"/>
</g>
<!-- NavigationbarComponent  -->
<g id="node18" class="node">
<title>NavigationbarComponent </title>
<polygon fill="#fb8072" stroke="black" points="1545.41,-217.8 1380.59,-217.8 1380.59,-181.8 1545.41,-181.8 1545.41,-217.8"/>
<text text-anchor="middle" x="1463" y="-195.6" font-family="Times,serif" font-size="14.00">NavigationbarComponent </text>
</g>
<!-- SharedModule&#45;&gt;NavigationbarComponent  -->
<g id="edge21" class="edge">
<title>SharedModule&#45;&gt;NavigationbarComponent </title>
<path fill="none" stroke="black" stroke-dasharray="5,2" d="M945.33,-128.8C1083.27,-128.8 1463,-128.8 1463,-128.8 1463,-128.8 1463,-171.52 1463,-171.52"/>
<polygon fill="black" stroke="black" points="1459.5,-171.52 1463,-181.52 1466.5,-171.52 1459.5,-171.52"/>
</g>
<!-- SnubTextPipe  -->
<g id="node19" class="node">
<title>SnubTextPipe </title>
<polygon fill="#fb8072" stroke="black" points="1362.33,-217.8 1263.67,-217.8 1263.67,-181.8 1362.33,-181.8 1362.33,-217.8"/>
<text text-anchor="middle" x="1313" y="-195.6" font-family="Times,serif" font-size="14.00">SnubTextPipe </text>
</g>
<!-- SharedModule&#45;&gt;SnubTextPipe  -->
<g id="edge22" class="edge">
<title>SharedModule&#45;&gt;SnubTextPipe </title>
<path fill="none" stroke="black" stroke-dasharray="5,2" d="M945.47,-135.8C1055.93,-135.8 1313,-135.8 1313,-135.8 1313,-135.8 1313,-171.63 1313,-171.63"/>
<polygon fill="black" stroke="black" points="1309.5,-171.63 1313,-181.63 1316.5,-171.63 1309.5,-171.63"/>
</g>
<!-- FooterComponent -->
<g id="node10" class="node">
<title>FooterComponent</title>
<polygon fill="#ffffb3" stroke="black" points="2310.88,-217.8 2193.12,-217.8 2193.12,-181.8 2310.88,-181.8 2310.88,-217.8"/>
<text text-anchor="middle" x="2252" y="-195.6" font-family="Times,serif" font-size="14.00">FooterComponent</text>
</g>
<!-- FooterComponent&#45;&gt;SharedModule -->
<g id="edge9" class="edge">
<title>FooterComponent&#45;&gt;SharedModule</title>
<path fill="none" stroke="black" d="M2252,-181.67C2252,-171.09 2252,-159.8 2252,-159.8 2252,-159.8 901.47,-159.8 901.47,-159.8 901.47,-159.8 901.47,-158.82 901.47,-158.82"/>
<polygon fill="black" stroke="black" points="904.97,-160.01 901.47,-150.01 897.97,-160.01 904.97,-160.01"/>
</g>
<!-- MovieComponent -->
<g id="node11" class="node">
<title>MovieComponent</title>
<polygon fill="#ffffb3" stroke="black" points="2174.88,-217.8 2057.12,-217.8 2057.12,-181.8 2174.88,-181.8 2174.88,-217.8"/>
<text text-anchor="middle" x="2116" y="-195.6" font-family="Times,serif" font-size="14.00">MovieComponent</text>
</g>
<!-- MovieComponent&#45;&gt;SharedModule -->
<g id="edge10" class="edge">
<title>MovieComponent&#45;&gt;SharedModule</title>
<path fill="none" stroke="black" d="M2096.35,-181.77C2096.35,-174.95 2096.35,-168.8 2096.35,-168.8 2096.35,-168.8 879.6,-168.8 879.6,-168.8 879.6,-168.8 879.6,-159.87 879.6,-159.87"/>
<polygon fill="black" stroke="black" points="883.1,-159.87 879.6,-149.87 876.1,-159.87 883.1,-159.87"/>
</g>
<!-- MovieComponent&#45;&gt;SharedModule -->
<g id="edge11" class="edge">
<title>MovieComponent&#45;&gt;SharedModule</title>
<path fill="none" stroke="black" d="M2135.65,-181.38C2135.65,-172.52 2135.65,-163.8 2135.65,-163.8 2135.65,-163.8 890.53,-163.8 890.53,-163.8 890.53,-163.8 890.53,-160.04 890.53,-160.04"/>
<polygon fill="black" stroke="black" points="894.03,-160.04 890.53,-150.04 887.03,-160.04 894.03,-160.04"/>
</g>
<!-- MovieListComponent -->
<g id="node12" class="node">
<title>MovieListComponent</title>
<polygon fill="#ffffb3" stroke="black" points="2038.66,-217.8 1899.34,-217.8 1899.34,-181.8 2038.66,-181.8 2038.66,-217.8"/>
<text text-anchor="middle" x="1969" y="-195.6" font-family="Times,serif" font-size="14.00">MovieListComponent</text>
</g>
<!-- MovieListComponent&#45;&gt;SharedModule -->
<g id="edge12" class="edge">
<title>MovieListComponent&#45;&gt;SharedModule</title>
<path fill="none" stroke="black" d="M1969,-181.64C1969,-176.76 1969,-172.8 1969,-172.8 1969,-172.8 868.66,-172.8 868.66,-172.8 868.66,-172.8 868.66,-159.9 868.66,-159.9"/>
<polygon fill="black" stroke="black" points="872.16,-159.9 868.66,-149.9 865.16,-159.9 872.16,-159.9"/>
</g>
<!-- SnubTextPipe -->
<g id="node13" class="node">
<title>SnubTextPipe</title>
<polygon fill="#ffffb3" stroke="black" points="2424.83,-217.8 2329.17,-217.8 2329.17,-181.8 2424.83,-181.8 2424.83,-217.8"/>
<text text-anchor="middle" x="2377" y="-195.6" font-family="Times,serif" font-size="14.00">SnubTextPipe</text>
</g>
<!-- SnubTextPipe&#45;&gt;SharedModule -->
<g id="edge14" class="edge">
<title>SnubTextPipe&#45;&gt;SharedModule</title>
<path fill="none" stroke="black" d="M2377,-181.76C2377,-169.24 2377,-154.8 2377,-154.8 2377,-154.8 912.4,-154.8 912.4,-154.8 912.4,-154.8 912.4,-154.31 912.4,-154.31"/>
<polygon fill="black" stroke="black" points="915.9,-159.92 912.4,-149.92 908.9,-159.92 915.9,-159.92"/>
</g>
<!-- SharedRoutingModule -->
<g id="node14" class="node">
<title>SharedRoutingModule</title>
<polygon fill="#8dd3c7" stroke="black" points="1874.55,-217.8 1871.55,-221.8 1850.55,-221.8 1847.55,-217.8 1731.45,-217.8 1731.45,-181.8 1874.55,-181.8 1874.55,-217.8"/>
<text text-anchor="middle" x="1803" y="-195.6" font-family="Times,serif" font-size="14.00">SharedRoutingModule</text>
</g>
<!-- SharedRoutingModule&#45;&gt;SharedModule -->
<g id="edge16" class="edge">
<title>SharedRoutingModule&#45;&gt;SharedModule</title>
<path fill="none" stroke="black" d="M1750.88,-181.63C1750.88,-179.35 1750.88,-177.8 1750.88,-177.8 1750.88,-177.8 857.72,-177.8 857.72,-177.8 857.72,-177.8 857.72,-159.98 857.72,-159.98"/>
<polygon fill="black" stroke="black" points="861.22,-159.98 857.72,-149.98 854.22,-159.98 861.22,-159.98"/>
</g>
<!-- WatchlistComponent -->
<g id="node20" class="node">
<title>WatchlistComponent</title>
<polygon fill="#ffffb3" stroke="black" points="1772.48,-84.8 1769.48,-88.8 1748.48,-88.8 1745.48,-84.8 1637.52,-84.8 1637.52,-48.8 1772.48,-48.8 1772.48,-84.8"/>
<text text-anchor="middle" x="1705" y="-62.6" font-family="Times,serif" font-size="14.00">WatchlistComponent</text>
</g>
<!-- WatchedListModule -->
<g id="node21" class="node">
<title>WatchedListModule</title>
<polygon fill="#8dd3c7" stroke="black" points="1770.58,-149.8 1767.58,-153.8 1746.58,-153.8 1743.58,-149.8 1639.42,-149.8 1639.42,-113.8 1770.58,-113.8 1770.58,-149.8"/>
<text text-anchor="middle" x="1705" y="-127.6" font-family="Times,serif" font-size="14.00">WatchedListModule</text>
</g>
<!-- WatchlistComponent&#45;&gt;WatchedListModule -->
<g id="edge23" class="edge">
<title>WatchlistComponent&#45;&gt;WatchedListModule</title>
<path fill="none" stroke="black" d="M1683.15,-84.91C1683.15,-84.91 1683.15,-103.79 1683.15,-103.79"/>
<polygon fill="black" stroke="black" points="1679.65,-103.79 1683.15,-113.79 1686.65,-103.79 1679.65,-103.79"/>
</g>
<!-- WatchlistComponent&#45;&gt;WatchedListModule -->
<g id="edge24" class="edge">
<title>WatchlistComponent&#45;&gt;WatchedListModule</title>
<path fill="none" stroke="black" d="M1726.85,-84.91C1726.85,-84.91 1726.85,-103.79 1726.85,-103.79"/>
<polygon fill="black" stroke="black" points="1723.35,-103.79 1726.85,-113.79 1730.35,-103.79 1723.35,-103.79"/>
</g>
</g>
</svg>
